<svg width="334" height="334" viewBox="0 0 334 334" fill="none" xmlns="http://www.w3.org/2000/svg">
<circle cx="167" cy="146.458" r="71.5" fill="#F1F1F1"/>
<rect x="138.95" y="145.001" width="70" height="98" rx="7" transform="rotate(2.5 138.95 145.001)" fill="#EEEEEE" stroke="#999999" stroke-width="2"/>
<rect x="97.3359" y="139.139" width="74" height="102" rx="9" transform="rotate(-7.5 97.3359 139.139)" fill="#FAFAFA" stroke="#999999" stroke-width="2"/>
<path d="M99.5021 147.932C98.9254 143.551 102.009 139.533 106.389 138.956L161.91 131.646C166.291 131.07 170.309 134.153 170.886 138.534L172.844 153.405L101.46 162.803L99.5021 147.932Z" fill="#EEEEEE"/>
<rect x="185.366" y="133.602" width="3" height="10" rx="1.5" transform="rotate(82.5 185.366 133.602)" fill="#999999"/>
<rect x="157.97" y="117.036" width="3" height="10" rx="1.5" transform="rotate(-7.5 157.97 117.036)" fill="#999999"/>
<rect x="175.547" y="119.765" width="3" height="10" rx="1.5" transform="rotate(37.5 175.547 119.765)" fill="#999999"/>
<rect x="108.922" y="165.855" width="58" height="4" rx="2" transform="rotate(-7.5 108.922 165.855)" fill="#DCDCDC"/>
<rect x="111.533" y="185.684" width="58" height="4" rx="2" transform="rotate(-7.5 111.533 185.684)" fill="#DCDCDC"/>
<rect x="114.143" y="205.513" width="58" height="4" rx="2" transform="rotate(-7.5 114.143 205.513)" fill="#DCDCDC"/>
<rect x="109.966" y="173.787" width="21" height="4" rx="2" transform="rotate(-7.5 109.966 173.787)" fill="#EEEEEE"/>
<rect x="112.577" y="193.616" width="21" height="4" rx="2" transform="rotate(-7.5 112.577 193.616)" fill="#EEEEEE"/>
<rect x="115.187" y="213.445" width="21" height="4" rx="2" transform="rotate(-7.5 115.187 213.445)" fill="#EEEEEE"/>
</svg>
